<svg xmlns="http://www.w3.org/2000/svg" xmlns:xlink="http://www.w3.org/1999/xlink" id="FULL_WHITE" viewBox="0 0 1848.36 527.43"><defs><style>.cls-1{fill:#78ffd6;}.cls-2{fill:url(#linear-gradient);}.cls-3{fill:#0f0f0f;}</style><linearGradient id="linear-gradient" x1="1113.34" y1="1876.55" x2="1650.26" y2="1876.55" gradientUnits="userSpaceOnUse"><stop offset="0" stop-color="#007991"/><stop offset="0.14" stop-color="#088296"/><stop offset="0.36" stop-color="#1f9ca3"/><stop offset="0.65" stop-color="#44c5b8"/><stop offset="0.99" stop-color="#77fed6"/><stop offset="0.99" stop-color="#78ffd6"/></linearGradient></defs><g id="Layer_9" data-name="Layer 9"><circle class="cls-1" cx="941.66" cy="183.16" r="26"/><circle class="cls-1" cx="1662.66" cy="183.16" r="26"/></g><path class="cls-2" d="M1412.56,1650a37.16,37.16,0,1,1-37.15-37.15A37.16,37.16,0,0,1,1412.56,1650Zm82.1-14.71A47.75,47.75,0,1,0,1542.4,1683,47.75,47.75,0,0,0,1494.66,1635.28Zm90.16,177.2a47.75,47.75,0,1,0-47.74-47.74A47.74,47.74,0,0,0,1584.82,1812.48Zm-91.16-39.93a47.75,47.75,0,1,0,47.74,47.75A47.75,47.75,0,0,0,1493.66,1772.55Zm0,124.45a47.75,47.75,0,1,0,47.74,47.75A47.75,47.75,0,0,0,1493.66,1897Zm-236.75-247a33,33,0,1,0,33,33A33,33,0,0,0,1256.91,1650Zm0,126.71a33,33,0,1,0,33,33A33,33,0,0,0,1256.91,1776.7Zm-86.59-39.62a27.66,27.66,0,1,0,27.66,27.66A27.66,27.66,0,0,0,1170.32,1737.08Zm-38.42,124.86a18.56,18.56,0,1,0,18.55,18.56A18.56,18.56,0,0,0,1131.9,1861.94Zm36.8,117.11a18.56,18.56,0,1,0,18.56,18.56A18.55,18.55,0,0,0,1168.7,1979.05Zm88.2,85.51a18.56,18.56,0,1,0,18.56,18.56A18.56,18.56,0,0,0,1256.9,2064.56Zm0-148.43a33,33,0,1,0,33,33A33,33,0,0,0,1256.9,1916.13Zm118.51-196.34a37.16,37.16,0,1,0,37.15,37.16A37.16,37.16,0,0,0,1375.41,1719.79Zm0,120.9a37.16,37.16,0,1,0,37.15,37.16A37.16,37.16,0,0,0,1375.41,1840.69Zm-.58,178.42a28,28,0,1,0-28-28A28,28,0,0,0,1374.83,2019.11Zm118.83,26.6a36.91,36.91,0,1,0,36.91,36.91A36.91,36.91,0,0,0,1493.66,2045.71Zm90.61-73.5a36.91,36.91,0,1,0,36.91,36.9A36.9,36.9,0,0,0,1584.27,1972.21ZM1608,1842.33a42.3,42.3,0,1,0,42.3,42.29A42.29,42.29,0,0,0,1608,1842.33Zm-232.55,241.94a28,28,0,1,0,28,28A28,28,0,0,0,1375.41,2084.27Z" transform="translate(-1113.34 -1612.84)"/><path class="cls-3" d="M1858,1884.12c21.9,7.2,33,22.8,33,45.9,0,36.6-24.3,55.5-70.8,55.5h-93.3v-199.2h85.8c46.8,0,71.1,18.9,71.1,54.9,0,20.4-8.7,34.5-25.8,42.3Zm-48.9-17.4c20.7,0,30-6.9,30-20.7,0-13.5-9-20.1-27-20.1h-40.8v40.8Zm9.6,79.2c18.3,0,27.3-6.6,27.3-20.7,0-13.8-9.6-21.3-30-21.3h-44.7v42Zm196.5-99v38.4h-1.5a38.11,38.11,0,0,0-22.2-6.6c-24,0-34.8,14.7-34.8,46.2v60.6h-39.3v-141h32.7l1.8,21.9h.6c7.8-16.5,21.6-24.9,42-24.9C2003.52,1841.52,2011,1843.62,2015.22,1846.92Zm20.7-2.4h39.29v141h-39.29Zm215.69,129.6c0,44.1-29.7,71.4-78.6,71.4-23.7,0-44.1-5.7-56.7-15.3v-39.6h1.5c10.5,12.3,29.4,20.1,50.4,20.1,28.2,0,44.1-14.1,44.1-39v-.9h-.6c-9.6,9.9-23.1,15.3-40.5,15.3-39.9,0-69-29.7-69-72.3s29.1-72.3,69-72.3c21,0,36.6,7.8,45.9,21.6h.6l1.2-18.6h32.7Zm-38.1-60.3c0-22.8-14.7-37.5-35.7-37.5-21.3,0-36,14.7-36,37.5s14.7,37.5,36,37.5C2198.81,1951.32,2213.51,1936.62,2213.51,1913.82Zm206.7-12v83.4h-39.3v-78.6c0-19.5-9.6-30.3-26.1-30.3-18.3,0-29.1,12.3-29.1,34.2v74.7h-39.3v-199h39.3v71.2h.6c9-10.5,22.2-15.9,39-15.9C2399.81,1841.52,2420.21,1863.72,2420.21,1901.82Zm122.1,81.9c-6.9,3.3-15.25,1.5-27.25,1.5-34.2,0-52.85-15.3-52.85-51v-56.4h-23.4v-33.3h24.6l5.1-39.6h33v39.6H2542v33.3h-40.5v54.9c0,13.5,7.2,21,19.5,21,7.2,0,13.8-1.8,19.8-8.1h1.5ZM2756,1844.52h39.3v141H2756Zm173,141-1.2-18.9h-.6c-9.3,13.8-25.14,18.6-46.14,18.6-39.9,0-68.76-27.6-68.76-70.2s29.1-73.5,69-73.5c17.4,0,30.9,5.4,40.5,15h.6v-70.3h39.3v199.3Zm-5.4-70.5c0-22.8-14.7-38.7-35.7-38.7-21.3,0-36,15.9-36,38.7s14.7,38.7,36,38.7C2908.9,1953.72,2923.6,1937.82,2923.6,1915Zm-220.16-30.57c21.9,7.2,33,22.8,33,45.9,0,36.6-24.3,55.5-70.8,55.5h-93.3v-199.2h85.8c46.8,0,71.1,18.9,71.1,54.9,0,20.4-8.7,34.5-25.8,42.3Zm-48.9-17.4c20.7,0,30-6.9,30-20.7,0-13.5-9-20.1-27-20.1h-40.8v40.8Zm9.6,79.2c18.3,0,27.3-6.6,27.3-20.7,0-13.8-9.6-21.3-30-21.3h-44.7v42Z" transform="translate(-1113.34 -1612.84)"/></svg>